<?xml version="1.0" encoding="UTF-8"?>
<svg width="243px" height="36px" viewBox="0 0 243 36" version="1.1" xmlns="http://www.w3.org/2000/svg" xmlns:xlink="http://www.w3.org/1999/xlink">
    <!-- Generator: Sketch 52.5 (67469) - http://www.bohemiancoding.com/sketch -->
    <title>home-logo@2x</title>
    <desc>Created with Sketch.</desc>
    <g id="首页" stroke="none" stroke-width="1" fill="none" fill-rule="evenodd">
        <g id="首页-未登陆" transform="translate(-30.000000, -284.000000)" fill-rule="nonzero">
            <g id="分组-5" transform="translate(0.000000, 258.000000)">
                <g id="home-logo" transform="translate(30.000000, 26.000000)">
                    <path d="M119.5,13 C120.880662,13 122,11.8807194 122,10.5001281 C122,9.11953681 120.880662,8 119.5,8 C118.119338,8 117,9.11953681 117,10.5001281 C117,11.8807194 118.119338,13 119.5,13" id="Fill-1" fill="#2EA7DF"></path>
                    <path d="M15,11.0795699 C15,5.91066161 12.5502168,1.46555655 10.6867112,0.0182287812 C10.6791183,0.0134907546 10.5440738,-0.064268623 10.5554631,0.142253595 C10.5557343,0.145040669 10.5532937,0.145876792 10.5532937,0.148385159 C10.3981824,10.1286201 5.43760192,12.8334759 2.71040805,16.477297 C-3.58326228,24.8859007 2.27002197,34.1049856 8.23014865,35.8087242 C11.565314,36.7621824 7.46001535,34.121708 6.93122664,28.5450508 C6.29207024,21.8045112 15,16.6595717 15,11.0795699" id="Fill-3" fill="#FFFFFF"></path>
                    <path d="M18.468099,14.0240052 C18.4276286,13.9979289 18.3701606,13.9800015 18.3302298,14.0422043 C18.2212295,15.2669743 16.8954189,17.8857385 15.2148177,20.2907316 C9.51496534,28.4485312 12.7631204,32.3806162 14.5896848,34.4927945 C15.6500095,35.7189226 14.5896848,34.4927945 17.2402268,33.2397751 C17.4482447,33.1417175 22.412345,30.5153477 22.9500619,24.5316575 C23.4705113,18.7375635 19.7812288,15.0852553 18.468099,14.0240052" id="Fill-5" fill="#2EA7DF"></path>
                    <path d="M45.165692,8 L45.165692,18.3037382 L34.8345845,18.3037382 L34.8345845,9.33593371 C34.8345845,8.59807291 34.2312637,8 33.487205,8 L30,8 L30,32.6640663 C30,33.4019271 30.6035973,34 31.3479325,34 L34.8345845,34 L34.8345845,22.4916191 L45.165692,22.4916191 L45.165692,32.6640663 C45.165692,33.4019271 45.7692893,34 46.5136245,34 L50,34 L50,9.33593371 C50,8.59807291 49.3969557,8 48.6526205,8 L45.165692,8 Z" id="Fill-7" fill="#FFFFFF"></path>
                    <path d="M66.1012735,15 L66.1012735,27.4011222 C66.1012735,28.5279718 65.5174267,29.5962374 64.5265631,30.1597998 C61.7606935,31.7333187 58.8987265,29.767864 58.8987265,27.1764123 L58.8987265,16.3405578 C58.8987265,15.600143 58.2888998,15 57.5371621,15 L54.0002794,15 L54,27.6184059 C54,31.6783101 57.3737409,35 61.4975433,35 L63.5024567,35 C67.6259798,35 71,31.6783101 71,27.6181308 L71,16.3405578 C71,15.600143 70.3904527,15 69.6384356,15 L66.1012735,15 Z" id="Fill-9" fill="#FFFFFF"></path>
                    <path d="M119.393846,35 L123,35 L123,17.3474864 C123,16.6035213 122.376287,16 121.60644,16 L118,16 L118,33.6525136 C118,34.3967552 118.623999,35 119.393846,35" id="Fill-11" fill="#2EA7DF"></path>
                    <path d="M88,26.1494537 C88,28.4612738 85.9748288,30 83.5,30 C81.0248859,30 79,28.4612738 79,26.1494537 L79,22.8505463 C79,20.5389927 81.0248859,19 83.5,19 C85.9748288,19 88,20.5389927 88,22.8505463 L88,26.1494537 Z M83.0001349,15 C78.0502901,15 74,18.6063276 74,23.6474897 L74,26.3742252 C74,31.4153874 78.0502901,35 83.0001349,35 C87.9499798,35 92,31.4153874 92,26.3742252 L92,23.6474897 C92,18.6063276 87.9499798,15 83.0001349,15 Z" id="Fill-13" fill="#FFFFFF"></path>
                    <path d="M110,26.799404 C110,29.3213896 107.97505,31 105.499857,31 C103.02495,31 101,29.3213896 101,26.799404 L101,23.200596 C101,20.6789011 103.02495,19 105.499857,19 C107.97505,19 110,20.6789011 110,23.200596 L110,26.799404 Z M105.000135,14.5666188 L104.999865,14.5666188 C103.453106,14.5666188 101.993792,14.9263605 100.719086,15.5784448 L100.719086,9.36847853 C100.719086,8.61276835 100.129909,8 99.4036256,8 L96,8 L96,26.1873128 C96,31.3377122 100.05002,35 104.999865,35 L105.000135,35 C109.94971,35 114,31.3377122 114,26.1873128 L114,23.4014915 C114,18.2510921 109.94971,14.5666188 105.000135,14.5666188 Z" id="Fill-15" fill="#2EA7DF"></path>
                    <path d="M206,26.799404 C206,29.3213896 203.974829,31 201.5,31 C199.025171,31 197,29.3213896 197,26.799404 L197,23.200596 C197,20.6789011 199.025171,19 201.5,19 C203.974829,19 206,20.6789011 206,23.200596 L206,26.799404 Z M201.00027,14.5666188 L201,14.5666188 C199.452948,14.5666188 197.994152,14.9263605 196.719157,15.5784448 L196.719157,9.36847853 C196.719157,8.61276835 196.130241,8 195.403407,8 L192,8 L192,26.1873128 C192,31.3377122 196.050081,35 201,35 L201.00027,35 C205.949919,35 210,31.3377122 210,26.1873128 L210,23.4014915 C210,18.2510921 205.949919,14.5666188 201.00027,14.5666188 Z" id="Fill-17" fill="#FFFFFF"></path>
                    <path d="M155.596901,18.84275 L146.13394,18.84275 L146.13394,21.4625937 C146.13394,22.2500937 146.762276,22.8885312 147.537316,22.8885312 L152.031994,22.8885312 L152.031994,25.204625 C152.031994,26.9135 151.612088,28.1749062 150.74432,29.0636562 C149.67864,30.181625 148.204127,30.77225 146.480493,30.77225 C144.927922,30.77225 143.449257,30.2257812 142.526959,29.3111562 C141.244822,28.034 140.968298,26.6474375 140.968298,21.4997187 C140.968298,16.3818125 141.244822,15.0014375 142.526406,13.7256875 C143.472508,12.7874375 145.317933,12.0775625 146.847807,12.0775625 C152.020368,12.0775625 153.757565,13.9430937 155.053819,15.6415625 C155.073195,15.6395937 155.223221,15.6415625 155.223221,15.6415625 L155.223221,11.8432813 C155.223221,11.2819062 154.959431,10.7570937 154.528176,10.4066562 C152.360832,8.64434375 150.200685,8 146.480493,8 C143.47666,8 140.907402,8.95934375 138.845796,10.8510313 C135.998908,13.463 135.999462,16.4099375 136.000015,21.291875 L136.000015,21.7075625 C135.999462,26.5897812 135.998908,29.5367188 138.845796,32.1486875 C140.878892,34.0142187 143.51901,35 146.480493,35 C149.591725,35 152.329831,33.9360312 154.399741,31.9234062 L154.400018,31.923125 C156.246827,30.120875 157,26.669375 157,23.0809062 L157,20.2684062 C157,19.4811875 156.371941,18.84275 155.596901,18.84275" id="Fill-19" fill="#FFFFFF"></path>
                    <path d="M170,34.9994359 L170,31.8708936 C170,31.1302867 169.38584,30.5306941 168.627239,30.5332324 C167.859683,30.5357706 166.897132,30.5385909 166.083066,30.5385909 C164.009481,30.5385909 164.106544,29.5263906 164.106544,26.9026793 L164.106544,14.5320625 L164.106544,9.33737922 C164.106544,8.59874654 163.493251,8 162.736383,8 L159,8 L159,27.5022719 C159,32.2254035 160.247098,34.9994359 165.468906,34.9994359 C167.486738,34.9994359 168.950207,34.9435943 169.999711,35 C169.999711,35 170,34.9994359 170,34.9994359" id="Fill-23" fill="#FFFFFF"></path>
                    <path d="M243,34.999718 L243,31.871143 C243,31.1305283 242.38584,30.5309295 241.627239,30.5334677 C240.859683,30.536006 239.897132,30.5388263 239.083066,30.5388263 C237.009481,30.5388263 237.106544,29.5266154 237.106544,26.9028767 L237.106544,14.5321307 L237.106544,9.33739319 C237.106544,8.59875279 236.493251,8 235.736383,8 L232,8 L232,27.5024756 C232,32.2256565 233.246809,34.999718 238.468906,34.999718 C240.486738,34.999718 241.950207,34.9438757 242.999711,35 C243,35 243,34.999718 243,34.999718" id="Fill-28" fill="#FFFFFF"></path>
                    <path d="M185,26.1492805 C185,28.4610446 182.974829,30 180.5,30 C178.025171,30 176,28.4610446 176,26.1492805 L176,22.850453 C176,20.5389554 178.025171,19 180.5,19 C182.974829,19 185,20.5389554 185,22.850453 L185,26.1492805 Z M180.00027,15 L180,15 C175.050081,15 171,18.6063276 171,23.6474897 L171,26.3742252 C171,31.4153874 175.050081,35 180,35 L180.00027,35 C184.949919,35 189,31.4153874 189,26.3742252 L189,23.6474897 C189,18.6063276 184.949919,15 180.00027,15 Z" id="Fill-30" fill="#FFFFFF"></path>
                    <path d="M225,26.14711 L225,30.7616111 C224.621554,30.8285942 224.203126,30.8814224 223.750268,30.9193373 C222.639641,31.0146302 221.64341,31.0320711 220.487803,30.9360199 C220.035778,30.8988632 219.617905,30.7939652 219.246123,30.6261284 C218.88739,30.4633469 218.59363,30.2323186 218.34957,29.9183828 C218.117449,29.6211297 218,29.1820747 218,28.6133505 C218,27.7279103 218.346793,27.0934669 219.060926,26.6738749 C219.821149,26.2267314 220.972869,26 222.483876,26 C222.891754,26 223.387926,26.0212324 223.97517,26.0634443 C224.359169,26.0915014 224.701519,26.1193057 225,26.14711 M227.747757,16.7304209 C226.27346,15.5822952 224.118285,15 221.340472,15 C220.307901,15 219.222436,15.0732671 218.113899,15.2178805 C217.224819,15.3334065 215.966602,15.4991493 215.09384,15.6953515 C214.740177,15.7746556 214.675185,16.0457714 214.675185,16.3709456 L214.675185,18.96054 C214.675185,19.4220954 214.680249,19.8419406 215.18106,19.7228473 C216.115438,19.5008507 217.929049,19.1087207 218.421138,19.0294166 C219.199927,18.9048351 220.048211,18.8417211 220.94123,18.8417211 C222.332528,18.8417211 223.393234,19.0845727 224.09437,19.5617694 C224.752739,20.0115252 225.086707,20.8676801 225.086707,22.105812 L225.086707,22.2559135 C224.839396,22.233412 224.567326,22.2122825 224.270498,22.1927995 C223.715666,22.1565776 223.004965,22.1376434 222.138393,22.1376434 C220.954735,22.1376434 219.808216,22.2685363 218.731472,22.5267548 C217.638691,22.7896383 216.65592,23.1954887 215.81045,23.7347017 C214.950631,24.2840678 214.260468,24.981889 213.760501,25.8095055 C213.25547,26.6434334 213,27.6200538 213,28.7111026 C213,29.8188903 213.218612,30.7834367 213.650492,31.5773009 C214.085184,32.3780254 214.711198,33.045936 215.508556,33.5615499 C216.293535,34.0703035 217.257456,34.442676 218.372182,34.6687888 C219.455397,34.8885901 220.682384,35 222.018536,35 C222.99146,35 230,34.9036826 230,31.650568 L230,22.2474068 C230,19.7519346 229.242312,17.8958345 227.747757,16.7304209" id="Fill-32" fill="#FFFFFF"></path>
                </g>
            </g>
        </g>
    </g>
</svg>